<svg width="11" height="10" viewBox="0 0 11 10" fill="none" xmlns="http://www.w3.org/2000/svg">
<g clip-path="url(#clip0_201_11689)">
<path fill-rule="evenodd" clip-rule="evenodd" d="M8.52016 1.99977C8.12542 1.60485 7.65648 1.29191 7.14031 1.07895C6.62414 0.865992 6.07095 0.757233 5.51259 0.758931C3.16928 0.758931 1.26169 2.65698 1.26074 4.99038C1.2597 5.73339 1.45556 6.4634 1.82837 7.10611L1.2251 9.29807L3.47901 8.70967C4.10291 9.04766 4.80131 9.22456 5.51087 9.22431H5.51259C7.8557 9.22431 9.7631 7.32607 9.76424 4.99286C9.76566 4.4364 9.6564 3.88521 9.44282 3.37136C9.22924 2.85752 8.9156 2.39128 8.52016 1.99977ZM5.51259 8.51011H5.51106C4.87851 8.5103 4.25747 8.34102 3.7125 8.01987L3.58346 7.94363L2.24598 8.29282L2.60299 6.99498L2.51893 6.86156C2.16524 6.30159 1.97785 5.65269 1.97856 4.99038C1.97856 3.05135 3.56459 1.4737 5.51392 1.4737C6.44903 1.47203 7.34651 1.84186 8.00897 2.50185C8.67142 3.16184 9.0446 4.05794 9.04642 4.99305C9.04566 6.93227 7.46039 8.51011 5.51259 8.51011ZM7.45086 5.87613C7.34469 5.82314 6.82186 5.56735 6.72503 5.53208C6.6282 5.49682 6.55673 5.47909 6.48601 5.58507C6.4153 5.69105 6.21154 5.92816 6.14959 5.99964C6.08764 6.07112 6.0257 6.07893 5.91953 6.02594C5.81336 5.97295 5.47084 5.86145 5.06504 5.5012C4.74921 5.22082 4.53611 4.87468 4.47417 4.7689C4.41222 4.66311 4.46749 4.60574 4.52067 4.55313C4.56851 4.50567 4.62684 4.42962 4.68002 4.36786C4.7332 4.30611 4.75092 4.26189 4.78619 4.19136C4.82145 4.12084 4.80391 4.05908 4.77742 4.00628C4.75092 3.95349 4.5384 3.43294 4.44996 3.22118C4.36361 3.01494 4.27613 3.04296 4.21094 3.03972C4.14899 3.03667 4.07751 3.03591 4.00718 3.03591C3.95341 3.03731 3.90051 3.04978 3.85178 3.07254C3.80304 3.0953 3.75953 3.12786 3.72394 3.16819C3.62654 3.27417 3.35207 3.53034 3.35207 4.05031C3.35207 4.57029 3.73328 5.07349 3.78589 5.14401C3.83849 5.21453 4.53497 6.2825 5.60065 6.74052C5.79853 6.82527 6.00072 6.89958 6.20639 6.96315C6.46085 7.04359 6.69244 7.03234 6.87542 7.00509C7.07956 6.97478 7.50442 6.74929 7.59267 6.50227C7.68092 6.25524 7.68111 6.04367 7.65461 5.99964C7.62812 5.95561 7.55721 5.92892 7.45086 5.87613Z" fill="#404040"/>
</g>
<defs>
<clipPath id="clip0_201_11689">
<rect width="9.75902" height="9.75902" fill="white" transform="translate(0.615234 0.148926)"/>
</clipPath>
</defs>
</svg>
