<svg width="9" height="9" viewBox="0 0 9 9" fill="none" xmlns="http://www.w3.org/2000/svg">
<path d="M7.85621 0H0.72964C0.34024 0 0 0.280189 0 0.665019V7.80741C0 8.19434 0.34024 8.53914 0.72964 8.53914H7.85411C8.24561 8.53914 8.53915 8.19205 8.53915 7.80741V0.665019C8.54143 0.280189 8.24561 0 7.85621 0ZM2.64695 7.1178H1.42364V3.31426H2.64695V7.1178ZM2.07761 2.73596H2.06884C1.67734 2.73596 1.42383 2.44452 1.42383 2.0797C1.42383 1.70821 1.68401 1.42364 2.08428 1.42364C2.48455 1.42364 2.72948 1.70611 2.73825 2.0797C2.73806 2.44452 2.48455 2.73596 2.07761 2.73596ZM7.1178 7.1178H5.89449V5.0381C5.89449 4.53985 5.71646 4.19943 5.27388 4.19943C4.93574 4.19943 4.73561 4.42816 4.64659 4.65097C4.61324 4.73103 4.60428 4.84006 4.60428 4.95137V7.1178H3.38097V3.31426H4.60428V3.84357C4.78231 3.59006 5.0604 3.22524 5.70751 3.22524C6.51053 3.22524 7.11799 3.75456 7.11799 4.89571L7.1178 7.1178Z" fill="black"/>
</svg>
