<svg width="11" height="10" viewBox="0 0 11 10" fill="none" xmlns="http://www.w3.org/2000/svg">
<g clip-path="url(#clip0_201_11548)">
<path d="M9.11353 0.758911H1.98696C1.59756 0.758911 1.25732 1.0391 1.25732 1.42393V8.56632C1.25732 8.95325 1.59756 9.29805 1.98696 9.29805H9.11143C9.50293 9.29805 9.79647 8.95096 9.79647 8.56632V1.42393C9.79875 1.0391 9.50293 0.758911 9.11353 0.758911ZM3.90427 7.87671H2.68096V4.07317H3.90427V7.87671ZM3.33493 3.49487H3.32616C2.93466 3.49487 2.68115 3.20343 2.68115 2.83861C2.68115 2.46712 2.94133 2.18255 3.3416 2.18255C3.74187 2.18255 3.9868 2.46502 3.99557 2.83861C3.99538 3.20343 3.74187 3.49487 3.33493 3.49487ZM8.37512 7.87671H7.15181V5.79701C7.15181 5.29876 6.97378 4.95834 6.5312 4.95834C6.19306 4.95834 5.99293 5.18707 5.90391 5.40988C5.87056 5.48994 5.8616 5.59897 5.8616 5.71028V7.87671H4.63829V4.07317H5.8616V4.60248C6.03963 4.34897 6.31772 3.98415 6.96483 3.98415C7.76785 3.98415 8.37531 4.51347 8.37531 5.65462L8.37512 7.87671Z" fill="#404040"/>
</g>
<defs>
<clipPath id="clip0_201_11548">
<rect width="9.75902" height="9.75902" fill="white" transform="translate(0.647461 0.148926)"/>
</clipPath>
</defs>
</svg>
