<svg width="9" height="9" viewBox="0 0 9 9" fill="none" xmlns="http://www.w3.org/2000/svg">
<path fill-rule="evenodd" clip-rule="evenodd" d="M7.29506 1.24086C6.90032 0.845939 6.43138 0.532999 5.91521 0.320039C5.39904 0.107081 4.84585 -0.00167842 4.28749 1.95797e-05C1.94418 1.95797e-05 0.03659 1.89807 0.03564 4.23147C0.0346 4.97448 0.23046 5.70449 0.60327 6.3472L0 8.53916L2.25391 7.95076C2.87781 8.28875 3.57621 8.46565 4.28577 8.4654H4.28749C6.6306 8.4654 8.538 6.56716 8.53914 4.23395C8.54056 3.67749 8.4313 3.1263 8.21772 2.61245C8.00414 2.09861 7.6905 1.63237 7.29506 1.24086ZM4.28749 7.7512H4.28596C3.65341 7.75139 3.03237 7.58211 2.4874 7.26096L2.35836 7.18472L1.02088 7.53391L1.37789 6.23607L1.29383 6.10265C0.94014 5.54268 0.75275 4.89378 0.75346 4.23147C0.75346 2.29244 2.33949 0.714789 4.28882 0.714789C5.22393 0.713119 6.12141 1.08295 6.78387 1.74294C7.44632 2.40293 7.8195 3.29903 7.82132 4.23414C7.82056 6.17336 6.23529 7.7512 4.28749 7.7512ZM6.22576 5.11722C6.11959 5.06423 5.59676 4.80844 5.49993 4.77317C5.4031 4.73791 5.33163 4.72018 5.26091 4.82616C5.1902 4.93214 4.98644 5.16925 4.92449 5.24073C4.86254 5.31221 4.8006 5.32002 4.69443 5.26703C4.58826 5.21404 4.24574 5.10254 3.83994 4.74229C3.52411 4.46191 3.31101 4.11577 3.24907 4.00999C3.18712 3.9042 3.24239 3.84683 3.29557 3.79422C3.34341 3.74676 3.40174 3.67071 3.45492 3.60895C3.5081 3.5472 3.52582 3.50298 3.56109 3.43245C3.59635 3.36193 3.57881 3.30017 3.55232 3.24737C3.52582 3.19458 3.3133 2.67403 3.22486 2.46227C3.13851 2.25603 3.05103 2.28405 2.98584 2.28081C2.92389 2.27776 2.85241 2.277 2.78208 2.277C2.72831 2.2784 2.67541 2.29087 2.62668 2.31363C2.57794 2.33639 2.53443 2.36895 2.49884 2.40928C2.40144 2.51526 2.12697 2.77143 2.12697 3.2914C2.12697 3.81138 2.50818 4.31458 2.56079 4.3851C2.61339 4.45562 3.30987 5.52359 4.37555 5.98161C4.57343 6.06636 4.77562 6.14067 4.98129 6.20424C5.23575 6.28468 5.46734 6.27343 5.65032 6.24618C5.85446 6.21587 6.27932 5.99038 6.36757 5.74336C6.45582 5.49633 6.45601 5.28476 6.42951 5.24073C6.40302 5.1967 6.33211 5.17001 6.22576 5.11722Z" fill="black"/>
</svg>
