<svg width="582" height="509" viewBox="0 0 582 509" fill="none" xmlns="http://www.w3.org/2000/svg">
<path d="M0 431V0H213.838C238.631 0 259.705 4.18854 277.059 12.5656C294.828 20.9427 308.464 32.88 317.968 48.3776C327.471 63.8751 332.223 82.3047 332.223 103.666C332.223 120.001 329.331 135.08 323.546 148.902C318.174 162.725 310.323 174.452 299.993 184.086C290.076 193.301 278.299 200.212 264.663 204.819V207.332C279.126 210.683 292.348 216.547 304.332 224.924C316.315 233.301 325.819 244.82 332.843 259.48C340.281 273.721 344 291.941 344 314.14C344 342.622 338.215 365.449 326.645 382.622C315.488 399.795 300.199 412.152 280.778 419.691C261.357 427.23 239.044 431 213.838 431H0ZM48.9658 388.277H216.937C240.077 388.277 258.671 382.413 272.721 370.685C287.183 358.538 294.414 338.224 294.414 309.742C294.414 291.731 291.315 276.862 285.117 265.134C278.919 253.406 269.828 244.82 257.845 239.375C245.862 233.93 230.78 231.207 212.598 231.207H48.9658V388.277ZM48.9658 188.484H206.4C221.276 188.484 234.292 185.552 245.449 179.688C257.019 173.405 266.109 164.609 272.721 153.3C279.332 141.991 282.638 129.007 282.638 114.347C282.638 90.0535 276.026 72.0428 262.804 60.3149C249.994 48.587 232.846 42.723 211.359 42.723H48.9658V188.484Z" fill="black"/>
<path d="M419.349 509C397.818 509 376.875 507.066 356.52 503.197C336.164 499.329 318.157 492.752 302.498 483.468C286.84 474.183 274.509 461.997 265.505 446.91C256.502 431.823 252 413.06 252 390.623C252 388.688 252 386.947 252 385.4C252 383.466 253.266 384.501 253.658 382.567L298.975 379.597C298.975 381.145 298.779 383.272 298.388 385.98C298.388 388.688 298.388 391.009 298.388 392.944C298.388 409.965 303.477 424.279 313.655 435.884C324.224 447.103 338.317 455.614 355.932 461.417C373.94 466.833 394.1 469.541 416.413 469.541C423.851 469.541 432.658 469.154 442.836 468.38C453.406 467.22 463.975 465.285 474.544 462.577C485.505 459.483 495.488 455.421 504.491 450.392C513.495 444.976 520.737 438.206 526.217 430.082C532.089 421.571 535.025 411.126 535.025 398.746C535.025 384.433 531.11 372.634 523.281 363.349C515.452 354.065 505.078 346.521 492.16 340.718C479.633 334.529 465.149 329.113 448.708 324.47C432.267 319.828 415.434 315.379 398.21 311.124C380.986 306.869 364.153 302.033 347.712 296.617C331.662 291.201 317.178 284.431 304.26 276.307C291.342 268.183 280.968 258.125 273.139 246.132C265.701 233.753 261.982 218.666 261.982 200.87C261.982 185.396 265.114 171.276 271.377 158.51C277.641 145.744 287.231 134.912 300.149 126.014C313.068 116.73 329.509 109.573 349.473 104.544C369.438 99.5145 393.121 97 420.523 97C441.27 97 460.648 99.1277 478.655 103.383C496.662 107.638 512.516 114.408 526.217 123.693C539.918 132.591 550.488 144.003 557.925 157.93C565.754 171.469 569.669 187.911 569.669 207.254V214.217H523.868V204.352C523.868 190.038 519.367 178.046 510.363 168.375C501.359 158.316 489.224 150.579 473.957 145.163C459.082 139.361 442.053 136.459 422.872 136.459C396.644 136.459 375.114 139.167 358.281 144.583C341.448 149.612 328.922 156.769 320.701 166.054C312.48 174.951 308.37 185.009 308.37 196.228C308.37 209.381 312.285 220.407 320.114 229.304C327.943 237.815 338.317 244.972 351.235 250.775C364.153 256.191 378.637 261.22 394.687 265.862C411.128 270.117 427.961 274.373 445.185 278.628C462.409 282.884 479.046 287.913 495.096 293.715C511.537 299.131 526.217 306.095 539.135 314.606C552.445 322.73 562.819 332.981 570.256 345.361C578.085 357.74 582 373.021 582 391.203C582 418.669 574.954 441.107 560.861 458.515C547.16 475.924 528.174 488.69 503.904 496.814C479.633 504.938 451.448 509 419.349 509Z" fill="black"/>
</svg>
