<svg width="887" height="887" viewBox="0 0 887 887" fill="none" xmlns="http://www.w3.org/2000/svg">
<circle cx="443.5" cy="443.5" r="443.5" fill="#E0E0E0"/>
<path d="M153 620V189H366.838C391.631 189 412.705 193.189 430.059 201.566C447.828 209.943 461.464 221.88 470.968 237.378C480.471 252.875 485.223 271.305 485.223 292.666C485.223 309.001 482.331 324.08 476.546 337.902C471.174 351.725 463.323 363.452 452.993 373.086C443.076 382.301 431.299 389.212 417.663 393.819V396.332C432.126 399.683 445.348 405.547 457.332 413.924C469.315 422.301 478.819 433.82 485.843 448.48C493.281 462.721 497 480.941 497 503.14C497 531.622 491.215 554.449 479.645 571.622C468.488 588.795 453.199 601.152 433.778 608.691C414.357 616.23 392.044 620 366.838 620H153ZM201.966 577.277H369.937C393.077 577.277 411.671 571.413 425.721 559.685C440.183 547.538 447.414 527.224 447.414 498.742C447.414 480.731 444.315 465.862 438.117 454.134C431.919 442.406 422.828 433.82 410.845 428.375C398.862 422.93 383.78 420.207 365.598 420.207H201.966V577.277ZM201.966 377.484H359.4C374.276 377.484 387.292 374.552 398.449 368.688C410.019 362.405 419.109 353.609 425.721 342.3C432.332 330.991 435.638 318.007 435.638 303.347C435.638 279.053 429.026 261.043 415.804 249.315C402.994 237.587 385.846 231.723 364.359 231.723H201.966V377.484Z" fill="#404040"/>
<path d="M572.349 698C550.818 698 529.875 696.066 509.52 692.197C489.164 688.329 471.157 681.752 455.498 672.468C439.84 663.183 427.509 650.997 418.505 635.91C409.502 620.823 405 602.06 405 579.623C405 577.688 405 575.947 405 574.4C405 572.466 406.266 573.501 406.658 571.567L451.975 568.597C451.975 570.145 451.779 572.272 451.388 574.98C451.388 577.688 451.388 580.009 451.388 581.944C451.388 598.965 456.477 613.279 466.655 624.884C477.224 636.103 491.317 644.614 508.932 650.417C526.94 655.833 547.1 658.541 569.413 658.541C576.851 658.541 585.658 658.154 595.836 657.38C606.406 656.22 616.975 654.285 627.544 651.577C638.505 648.483 648.488 644.421 657.491 639.392C666.495 633.976 673.737 627.206 679.217 619.082C685.089 610.571 688.025 600.126 688.025 587.746C688.025 573.433 684.11 561.634 676.281 552.349C668.452 543.065 658.078 535.521 645.16 529.718C632.633 523.529 618.149 518.113 601.708 513.47C585.267 508.828 568.434 504.379 551.21 500.124C533.986 495.869 517.153 491.033 500.712 485.617C484.662 480.201 470.178 473.431 457.26 465.307C444.342 457.183 433.968 447.125 426.139 435.132C418.701 422.753 414.982 407.666 414.982 389.87C414.982 374.396 418.114 360.276 424.377 347.51C430.641 334.744 440.231 323.912 453.149 315.014C466.068 305.73 482.509 298.573 502.473 293.544C522.438 288.515 546.121 286 573.523 286C594.27 286 613.648 288.128 631.655 292.383C649.662 296.638 665.516 303.408 679.217 312.693C692.918 321.591 703.488 333.003 710.925 346.93C718.754 360.469 722.669 376.911 722.669 396.254V403.217H676.868V393.352C676.868 379.038 672.367 367.046 663.363 357.375C654.359 347.316 642.224 339.579 626.957 334.163C612.082 328.361 595.053 325.459 575.872 325.459C549.644 325.459 528.114 328.167 511.281 333.583C494.448 338.612 481.922 345.769 473.701 355.054C465.48 363.951 461.37 374.009 461.37 385.228C461.37 398.381 465.285 409.407 473.114 418.304C480.943 426.815 491.317 433.972 504.235 439.775C517.153 445.191 531.637 450.22 547.687 454.862C564.128 459.117 580.961 463.373 598.185 467.628C615.409 471.884 632.046 476.913 648.096 482.715C664.537 488.131 679.217 495.095 692.135 503.606C705.445 511.73 715.819 521.981 723.256 534.361C731.085 546.74 735 562.021 735 580.203C735 607.669 727.954 630.107 713.861 647.515C700.16 664.924 681.174 677.69 656.904 685.814C632.633 693.938 604.448 698 572.349 698Z" fill="#404040"/>
</svg>
